<svg xmlns="http://www.w3.org/2000/svg" viewBox="0 0 800 500">
  <defs>
    <linearGradient id="bg" x1="0" y1="0" x2="0" y2="1">
      <stop offset="0" stop-color="#211d16"/><stop offset="1" stop-color="#141210"/>
    </linearGradient>
    <linearGradient id="car" x1="0" y1="0" x2="0" y2="1">
      <stop offset="0" stop-color="#2c2820"/><stop offset="1" stop-color="#0c0b09"/>
    </linearGradient>
  </defs>
  <rect width="800" height="500" fill="url(#bg)"/>
  <ellipse cx="400" cy="430" rx="320" ry="22" fill="#000" opacity="0.4"/>
  <!-- stylised car silhouette -->
  <path d="M140 360 q20 -70 90 -90 q40 -50 140 -50 q120 0 170 55 q70 8 110 85 q10 30 -20 35 l-490 0 q-30 -5 -10 -35 z" fill="url(#car)" stroke="#C8982F" stroke-width="1.5" opacity="0.95"/>
  <path d="M270 235 q30 -30 100 -30 q90 0 130 35 l-30 60 -180 0 z" fill="#3a3528" opacity="0.6"/>
  <circle cx="265" cy="375" r="42" fill="#0a0908" stroke="#C8982F" stroke-width="2"/>
  <circle cx="265" cy="375" r="18" fill="#1a1a1a" stroke="#9E6F1E" stroke-width="1.5"/>
  <circle cx="545" cy="375" r="42" fill="#0a0908" stroke="#C8982F" stroke-width="2"/>
  <circle cx="545" cy="375" r="18" fill="#1a1a1a" stroke="#9E6F1E" stroke-width="1.5"/>
  <text x="400" y="475" text-anchor="middle" font-family="Inter, sans-serif" font-size="15" letter-spacing="4" fill="#6b655b">GROUP VAN</text>
</svg>
